<?xml version="1.0" encoding="UTF-8" standalone="no"?>
<!-- Created with Inkscape (http://www.inkscape.org/) -->

<svg
   version="1.1"
   id="svg306"
   width="410.56812"
   height="193.33972"
   viewBox="0 0 410.56812 193.33972"
   sodipodi:docname="livraria_virtual_logo.svg"
   inkscape:version="1.2.1 (9c6d41e410, 2022-07-14)"
   xmlns:inkscape="http://www.inkscape.org/namespaces/inkscape"
   xmlns:sodipodi="http://sodipodi.sourceforge.net/DTD/sodipodi-0.dtd"
   xmlns="http://www.w3.org/2000/svg"
   xmlns:svg="http://www.w3.org/2000/svg">
  <defs
     id="defs310" />
  <sodipodi:namedview
     id="namedview308"
     pagecolor="#ffffff"
     bordercolor="#666666"
     borderopacity="1.0"
     inkscape:showpageshadow="2"
     inkscape:pageopacity="0.0"
     inkscape:pagecheckerboard="0"
     inkscape:deskcolor="#d1d1d1"
     showgrid="false"
     inkscape:zoom="0.5675"
     inkscape:cx="840.52863"
     inkscape:cy="382.37885"
     inkscape:window-width="1600"
     inkscape:window-height="837"
     inkscape:window-x="-8"
     inkscape:window-y="-8"
     inkscape:window-maximized="1"
     inkscape:current-layer="g312" />
  <g
     inkscape:groupmode="layer"
     inkscape:label="LV_Logo"
     id="g312"
     transform="translate(-598.61237,-223.2113)">
    <g
       id="g668"
       transform="matrix(0.28290259,0,0,0.63134962,576.97055,18.354636)">
      <path
         style="fill:none;stroke:#FFFFFF;stroke-width:3px;stroke-linecap:butt;stroke-linejoin:miter;stroke-opacity:1"
         d="m 782.37886,380.61674 19.38325,179.73568 c 85.74153,-210.17896 333.51849,-84.28436 537.44489,-49.3392 l 183.26,118.06167 C 1058.676,617.59377 601.94086,613.97042 79.295154,616.74009 L 188.54626,451.10132 c 50.20818,-16.03608 96.62662,-41.54652 137.44493,-81.05727 l 255.50661,-44.05286 93.39207,12.3348 107.48898,44.05286 c 71.93457,-90.13762 251.78695,-55.75463 444.05285,-7.04845 l 111.0132,135.68282"
         id="path525"
         sodipodi:nodetypes="cccccccccccc" />
      <path
         style="fill:none;stroke:#FFFFFF;stroke-width:3px;stroke-linecap:butt;stroke-linejoin:miter;stroke-opacity:1"
         d="M 125.11013,600.88106 246.69604,509.2511 c 134.50807,-20.558 263.94216,-71.5599 403.52422,-61.67401 79.56213,23.62658 147.0333,53.70168 156.8282,114.53745"
         id="path527"
         sodipodi:nodetypes="cccc" />
      <path
         style="fill:none;stroke:#FFFFFF;stroke-width:3px;stroke-linecap:butt;stroke-linejoin:miter;stroke-opacity:1"
         d="m 1233.4802,375.3304 123.348,79.29515 133.9207,151.54185"
         id="path578" />
      <path
         style="fill:none;stroke:#FFFFFF;stroke-width:3px;stroke-linecap:butt;stroke-linejoin:miter;stroke-opacity:1"
         d="M 831.71806,583.25991 C 901.81128,384.78947 1217.7606,567.81988 1413.2158,563.87665"
         id="path582"
         sodipodi:nodetypes="cc" />
      <path
         style="fill:none;stroke:#FFFFFF;stroke-width:3px;stroke-linecap:butt;stroke-linejoin:miter;stroke-opacity:1"
         d="M 842.29075,581.4978 C 907.40784,445.99387 1209.8741,559.85503 1404.4053,562.11454"
         id="path638"
         sodipodi:nodetypes="cc" />
      <path
         style="fill:none;stroke:#FFFFFF;stroke-width:3px;stroke-linecap:butt;stroke-linejoin:miter;stroke-opacity:1"
         d="m 733.03965,604.40529 c -207.44606,5.39025 -406.53222,-4.62784 -609.69163,-3.52423"
         id="path640"
         sodipodi:nodetypes="cc" />
      <path
         style="fill:none;stroke:#FFFFFF;stroke-width:3px;stroke-linecap:butt;stroke-linejoin:miter;stroke-opacity:1"
         d="m 879.29516,607.92952 622.02644,5.28634"
         id="path642"
         sodipodi:nodetypes="cc" />
      <path
         style="fill:none;stroke:#FFFFFF;stroke-width:3px;stroke-linecap:butt;stroke-linejoin:miter;stroke-opacity:1"
         d="m 731.27753,607.92952 c 48.19434,-12.68321 96.95089,-20.86864 149.77974,3.52422"
         id="path644"
         sodipodi:nodetypes="cc" />
      <path
         style="fill:none;stroke:#FFFFFF;stroke-width:3px;stroke-linecap:butt;stroke-linejoin:miter;stroke-opacity:1"
         d="M 777.09251,579.73568 C 689.65983,391.8298 389.42731,558.59031 195.59471,548.01762"
         id="path646"
         sodipodi:nodetypes="cc" />
      <path
         style="fill:none;stroke:#FFFFFF;stroke-width:3px;stroke-linecap:butt;stroke-linejoin:miter;stroke-opacity:1"
         d="M 327.7533,373.56828 244.93392,511.01321"
         id="path650"
         sodipodi:nodetypes="cc" />
      <path
         style="fill:none;stroke:#FFFFFF;stroke-width:3px;stroke-linecap:butt;stroke-linejoin:miter;stroke-opacity:1"
         d="M 125.11013,599.11894 218.5022,440.52863"
         id="path652" />
      <path
         style="fill:none;stroke:#FFFFFF;stroke-width:3px;stroke-linecap:butt;stroke-linejoin:miter;stroke-opacity:1"
         d="M 777.09251,579.73568 C 574.71849,460.9661 400.38788,540.69245 193.8326,551.54185"
         id="path654"
         sodipodi:nodetypes="cc" />
    </g>
  </g>
</svg>
